<svg width="120" height="40" viewBox="0 0 120 40" fill="none" xmlns="http://www.w3.org/2000/svg">
<g id="KAMA logo" clip-path="url(#clip0_103_945)">
<g id="Group">
<path id="Vector" d="M95.7364 2.71429H96.3628C96.3793 2.71429 96.4122 2.71429 96.4287 2.71429H96.4782L96.9892 3.71429H97.4013L96.8408 2.61906C96.9892 2.55556 97.1045 2.46033 97.187 2.33334C97.2859 2.19049 97.3353 2.03175 97.3353 1.87302C97.3353 1.71429 97.3024 1.57144 97.2199 1.44445C97.1375 1.31747 97.0386 1.20636 96.8903 1.14287C96.7584 1.0635 96.61 1.03175 96.4452 1.03175H95.3408V3.71429H95.7199V2.71429H95.7364ZM95.7364 1.34921H96.4287C96.5276 1.34921 96.61 1.38096 96.6925 1.4127C96.7749 1.46032 96.8408 1.52382 96.8903 1.60318C96.9397 1.68255 96.9562 1.77779 96.9562 1.85715C96.9562 1.95239 96.9397 2.03175 96.8903 2.11112C96.8408 2.19048 96.7749 2.25398 96.6925 2.30159C96.61 2.34921 96.5276 2.36509 96.4287 2.36509H95.7364V1.34921Z" fill="#212121"/>
<path id="Vector_2" d="M95.0274 4.39684C95.4065 4.60319 95.8186 4.7143 96.2637 4.7143C96.7087 4.7143 97.1208 4.60319 97.4999 4.39684C97.879 4.19049 98.1758 3.90478 98.39 3.55557C98.6043 3.20636 98.7197 2.80954 98.7197 2.39684C98.7197 1.98414 98.6043 1.58732 98.39 1.22224C98.1758 0.873034 97.879 0.587317 97.4999 0.380967C97.1208 0.174618 96.7087 0.0635071 96.2637 0.0635071C95.8186 0.0635071 95.4065 0.174618 95.0274 0.380967C94.6483 0.587317 94.3516 0.873034 94.1373 1.22224C93.923 1.57145 93.8076 1.96827 93.8076 2.39684C93.8076 2.80954 93.923 3.20636 94.1373 3.55557C94.3516 3.90478 94.6483 4.19049 95.0274 4.39684ZM94.401 1.33335C94.5988 1.01589 94.8626 0.761923 95.1758 0.587319C95.5054 0.412716 95.8681 0.317476 96.2637 0.317476C96.6593 0.317476 97.0219 0.412716 97.3516 0.587319C97.6812 0.761923 97.945 1.01589 98.1263 1.33335C98.3241 1.65081 98.4065 2.00002 98.4065 2.38097C98.4065 2.76192 98.3076 3.11113 98.1263 3.42859C97.945 3.74605 97.6812 4.00001 97.3516 4.17462C97.0219 4.34922 96.6593 4.44446 96.2637 4.44446C95.8681 4.44446 95.5054 4.34922 95.1758 4.17462C94.8461 4.00001 94.5823 3.74605 94.401 3.42859C94.2032 3.11113 94.1208 2.76192 94.1208 2.38097C94.1043 2.00002 94.2032 1.65081 94.401 1.33335Z" fill="#212121"/>
<path id="Vector_3" d="M4.00472 35.6825C3.67505 35.5397 3.29593 35.4445 2.86736 35.4286V35.0952H2.40582V35.4286C1.99373 35.4445 1.61461 35.5397 1.26846 35.6825C0.922306 35.8413 0.658566 36.0635 0.460764 36.3492C0.262962 36.6349 0.164062 37 0.164062 37.4127C0.164062 37.8254 0.262962 38.1746 0.460764 38.4762C0.658566 38.7619 0.922306 38.9841 1.26846 39.1429C1.59813 39.2857 1.97725 39.381 2.40582 39.3968V39.7302H2.86736V39.3968C3.29593 39.381 3.67505 39.2857 4.00472 39.1429C4.35087 38.9841 4.61461 38.7619 4.81242 38.4762C5.01022 38.1905 5.10912 37.8254 5.10912 37.4127C5.10912 37 5.01022 36.6508 4.81242 36.3492C4.61461 36.0635 4.33439 35.8413 4.00472 35.6825ZM2.86736 35.8572C3.18055 35.873 3.47725 35.9365 3.74099 36.0476C4.00472 36.1587 4.23549 36.3333 4.38384 36.5714C4.54867 36.7937 4.63109 37.0794 4.63109 37.4127C4.63109 37.746 4.54867 38.0318 4.38384 38.254C4.219 38.4762 4.00472 38.6508 3.74099 38.7778C3.47725 38.8889 3.18055 38.9524 2.86736 38.9683V35.8572ZM1.53219 38.7778C1.26846 38.6667 1.05418 38.4921 0.889341 38.254C0.724506 38.0318 0.642089 37.746 0.642089 37.4127C0.642089 37.0794 0.724506 36.7937 0.889341 36.5714C1.05418 36.3492 1.26846 36.1746 1.53219 36.0476C1.79593 35.9365 2.09263 35.873 2.40582 35.8572V38.9524C2.09263 38.9524 1.79593 38.8889 1.53219 38.7778Z" fill="#212121"/>
<path id="Vector_4" d="M9.09827 35.1111H8.65321L6.60925 39.6984L6.59277 39.7302H7.08728L7.59826 38.5714H10.1367L10.6477 39.7302H11.1422L9.09827 35.1111ZM8.8675 35.7143L9.95542 38.1746H7.7631L8.8675 35.7143Z" fill="#212121"/>
<path id="Vector_5" d="M15.8075 37.127C15.5768 37 15.3295 36.9365 15.0493 36.9365H13.6812V35.5238H16.1372V35.1111H13.2031V39.7302H15.0328C15.313 39.7302 15.5603 39.6667 15.791 39.5397C16.0218 39.4127 16.2031 39.254 16.335 39.0318C16.4669 38.8254 16.5328 38.5714 16.5328 38.3175C16.5328 38.0635 16.4669 37.8254 16.335 37.6191C16.2031 37.4127 16.0218 37.254 15.8075 37.127ZM13.6647 37.3334H15.0328C15.2141 37.3334 15.3954 37.381 15.5438 37.4603C15.6921 37.5397 15.824 37.6667 15.9229 37.8254C16.0218 37.9841 16.0713 38.1429 16.0713 38.3334C16.0713 38.508 16.0218 38.6826 15.9229 38.8413C15.824 39 15.7086 39.1111 15.5438 39.2064C15.379 39.3016 15.2141 39.3333 15.0328 39.3333H13.6812V37.3334H13.6647Z" fill="#212121"/>
<path id="Vector_6" d="M21.4444 35.3016C21.2136 35.1746 20.9334 35.1111 20.6532 35.1111H18.7246V39.7302H19.1862V38.0794H20.6697C20.9664 38.0794 21.2301 38.0159 21.4609 37.8889C21.6916 37.7619 21.873 37.5873 22.0048 37.3651C22.1367 37.1429 22.2026 36.873 22.2026 36.6032C22.2026 36.3175 22.1367 36.0635 22.0048 35.8413C21.8565 35.6032 21.6752 35.4286 21.4444 35.3016ZM21.7246 36.5873C21.7246 36.7937 21.6752 36.9683 21.5763 37.1429C21.4774 37.3016 21.3455 37.4445 21.1971 37.5238C21.0323 37.6191 20.851 37.6667 20.6532 37.6667H19.1862V35.5238H20.6367C20.8345 35.5238 21.0323 35.5714 21.1971 35.6667C21.362 35.7619 21.4938 35.8889 21.5927 36.0476C21.6752 36.2064 21.7246 36.3968 21.7246 36.5873Z" fill="#212121"/>
<path id="Vector_7" d="M24.7584 38.9524V35.1111H24.2969V39.7302H24.676L27.8408 35.8889V39.7302H28.3024V35.1111H27.9397L24.7584 38.9524Z" fill="#212121"/>
<path id="Vector_8" d="M34.2357 35.1111H33.6588L31.9445 37.1429H31.3346V35.1111H30.873V39.7302H31.3346V37.6191H31.9445L33.7247 39.7302H34.3016L32.3236 37.3651L34.2357 35.1111Z" fill="#212121"/>
<path id="Vector_9" d="M38.5543 35.1111H38.1093L36.0653 39.6984L36.0488 39.7302H36.5433L37.0543 38.5714H39.5928L40.1038 39.7302H40.5983L38.5543 35.1111ZM38.34 35.7143L39.4279 38.1746H37.2521L38.34 35.7143Z" fill="#212121"/>
<path id="Vector_10" d="M48.2968 37.5397L46.3683 35.1111H45.9727V39.7302H46.4342V35.8572L48.1979 38.1111H48.3628L50.143 35.8572V39.7302H50.621V35.1111H50.2089L48.2968 37.5397Z" fill="#212121"/>
<path id="Vector_11" d="M53.6374 35.2857C53.4066 35.3968 53.2253 35.5715 53.0935 35.7778C52.9616 35.9841 52.8957 36.2381 52.8957 36.5238C52.8957 36.746 52.9451 36.9683 53.044 37.1587C53.1429 37.3492 53.2748 37.508 53.4396 37.6349C53.6044 37.746 53.7858 37.8254 53.9836 37.873L52.7803 39.7461H53.3242L54.4781 37.9524C54.4946 37.9524 54.511 37.9524 54.5275 37.9524H56.011V39.7461H56.4726V35.127H54.4616C54.1484 35.1111 53.8682 35.1587 53.6374 35.2857ZM53.5055 36C53.6044 35.8413 53.7363 35.7302 53.9012 35.6349C54.066 35.5556 54.2473 35.508 54.4616 35.508H55.9946V37.5238H54.4451C54.2308 37.5238 54.0495 37.4762 53.8847 37.3968C53.7198 37.3175 53.588 37.1905 53.5055 37.0476C53.4066 36.9048 53.3737 36.7143 53.3737 36.5238C53.3572 36.3333 53.4066 36.1587 53.5055 36Z" fill="#212121"/>
<path id="Vector_12" d="M59.0107 39.7302H59.4723V35.5238H61.6481V35.1111H59.0107V39.7302Z" fill="#212121"/>
<path id="Vector_13" d="M67.137 35.1111H66.5601L64.8458 37.1429H64.2524V35.1111H63.7744V39.7302H64.2524V37.6191H64.8458L66.6261 39.7302H67.2195L65.225 37.3651L67.137 35.1111Z" fill="#212121"/>
<path id="Vector_14" d="M72.3955 35.3333C71.9999 35.127 71.5713 35.0159 71.1098 35.0159C70.6482 35.0159 70.2196 35.127 69.8405 35.3333C69.4614 35.5397 69.1482 35.8413 68.9174 36.2064C68.6867 36.5714 68.5713 36.9841 68.5713 37.4127C68.5713 37.8413 68.6867 38.254 68.9174 38.6191C69.1482 38.9841 69.4614 39.2699 69.8405 39.4921C70.2361 39.6984 70.6647 39.8095 71.1098 39.8095C71.5713 39.8095 71.9999 39.6984 72.3955 39.4921C72.7746 39.2857 73.0878 38.9841 73.3185 38.6191C73.5493 38.254 73.6647 37.8413 73.6647 37.4127C73.6647 36.9683 73.5493 36.5714 73.3185 36.2064C73.0878 35.8413 72.7746 35.5397 72.3955 35.3333ZM73.2032 37.4127C73.2032 37.7778 73.1043 38.1111 72.9229 38.4127C72.7416 38.7143 72.4779 38.9524 72.1647 39.127C71.8515 39.3016 71.4889 39.381 71.1098 39.381C70.7306 39.381 70.3845 39.2857 70.0713 39.127C69.7581 38.9524 69.4944 38.7143 69.313 38.4127C69.1317 38.1111 69.0328 37.7778 69.0328 37.4127C69.0328 37.0476 69.1317 36.7143 69.313 36.4127C69.4944 36.1111 69.7581 35.873 70.0713 35.6984C70.3845 35.5238 70.7471 35.4286 71.1098 35.4286C71.4889 35.4286 71.835 35.5238 72.1647 35.6984C72.4779 35.873 72.7416 36.1111 72.9229 36.4127C73.1043 36.7143 73.2032 37.0476 73.2032 37.4127Z" fill="#212121"/>
<path id="Vector_15" d="M76.3678 38.9524V35.1111H75.9062V39.7302H76.2854L79.4502 35.8889V39.7302H79.9118V35.1111H79.5326L76.3678 38.9524Z" fill="#212121"/>
<path id="Vector_16" d="M77.159 34.3492C77.2414 34.4603 77.3403 34.5556 77.4722 34.6032C77.604 34.6667 77.7524 34.6826 77.9337 34.6826C78.115 34.6826 78.2634 34.6508 78.3952 34.6032C78.5271 34.5397 78.626 34.4603 78.7084 34.3492C78.7908 34.2381 78.8403 34.0953 78.8568 33.9206V33.8889H78.4777V33.9048C78.4447 34.0159 78.4117 34.0952 78.3788 34.1746C78.3458 34.2381 78.2799 34.2857 78.2139 34.3175C78.148 34.3492 78.0491 34.3651 77.9337 34.3651C77.8183 34.3651 77.7194 34.3492 77.6535 34.3175C77.5875 34.2857 77.5216 34.2381 77.4886 34.1746C77.4557 34.1111 77.4227 34.0159 77.3897 33.9048V33.8889H76.9941V33.9206C77.0271 34.0953 77.0766 34.2381 77.159 34.3492Z" fill="#212121"/>
<path id="Vector_17" d="M88.2519 37.5397L86.3233 35.1111H85.9277V39.7302H86.3893V35.8572L88.1695 38.1111H88.3343L90.1145 35.8572V39.7302H90.5761V35.1111H90.164L88.2519 37.5397Z" fill="#212121"/>
<path id="Vector_18" d="M93.5934 37.5714H95.934V37.1746H93.5934V35.5238H96.2637V35.1111H93.1318V39.7302H96.2967V39.3175H93.5934V37.5714Z" fill="#212121"/>
<path id="Vector_19" d="M101.06 37.127C100.83 37 100.582 36.9365 100.302 36.9365H98.9341V35.5238H101.39V35.1111H98.4561V39.7302H100.286C100.566 39.7302 100.813 39.6667 101.044 39.5397C101.275 39.4127 101.456 39.254 101.588 39.0318C101.72 38.8254 101.786 38.5714 101.786 38.3175C101.786 38.0635 101.72 37.8254 101.588 37.6191C101.473 37.4127 101.291 37.254 101.06 37.127ZM101.324 38.3175C101.324 38.4921 101.275 38.6667 101.176 38.8254C101.077 38.9841 100.962 39.0953 100.797 39.1905C100.632 39.2857 100.467 39.3175 100.286 39.3175H98.9341V37.3175H100.302C100.484 37.3175 100.665 37.3651 100.813 37.4445C100.962 37.5397 101.093 37.6508 101.192 37.8095C101.275 37.9683 101.324 38.1429 101.324 38.3175Z" fill="#212121"/>
<path id="Vector_20" d="M104.439 37.5714H106.763V37.1746H104.439V35.5238H107.093V35.1111H103.961V39.7302H107.126V39.3175H104.439V37.5714Z" fill="#212121"/>
<path id="Vector_21" d="M109.879 38.5238C109.879 38.7302 109.895 38.8889 109.846 39.0159C109.796 39.1429 109.73 39.2381 109.631 39.3016C109.533 39.3651 109.401 39.3968 109.219 39.3968H109.038V39.8254H109.219C109.467 39.8254 109.681 39.7778 109.846 39.6826C110.011 39.5873 110.142 39.4445 110.225 39.2699C110.307 39.0953 110.357 38.8572 110.357 38.5714V35.5397H112.961V39.7461H113.423V35.127H109.879V38.5238Z" fill="#212121"/>
<path id="Vector_22" d="M119.654 35.1111L116.489 38.9524V35.1111H116.011V39.7302H116.39L119.555 35.8889V39.7302H120.016V35.1111H119.654Z" fill="#212121"/>
<path id="Vector_23" d="M85.9938 2.3016C82.8289 1.76192 79.8619 3.41271 78.7575 6.33335L71.9169 24.746C71.4883 25.8572 70.4993 25.8254 70.1037 25.746C69.6916 25.6826 68.752 25.3968 68.752 24.2064V8.34922C68.752 5.26986 66.5432 2.73017 63.3949 2.20636C60.23 1.66668 57.263 3.31747 56.1751 6.20636L46.9443 30.1746H52.1202L60.741 7.82541C61.1696 6.7143 62.1586 6.74604 62.5542 6.80954C62.9663 6.87303 63.9059 7.17462 63.9059 8.34922V24.2064C63.9059 27.2857 66.1147 29.8254 69.263 30.3651C72.4279 30.9048 75.3949 29.254 76.4993 26.3334L83.3399 7.92065C83.7685 6.80954 84.7575 6.84128 85.1531 6.92065C85.5652 6.98414 86.5048 7.26985 86.5048 8.46033V30.1587H91.3674V8.44446C91.3509 5.3651 89.1421 2.84128 85.9938 2.3016Z" fill="#212121"/>
<path id="Vector_24" d="M115.137 6.93653V9.85716C112.896 7.80954 109.879 6.55557 106.566 6.55557C99.6924 6.55557 94.1045 11.9365 94.1045 18.5556C94.1045 25.1746 99.6924 30.5556 106.566 30.5556C109.896 30.5556 112.912 29.3016 115.137 27.254V30.1587H120V18.5556V6.93653H115.137ZM106.566 25.873C102.379 25.873 98.9506 22.5873 98.9506 18.5397C98.9506 14.508 102.363 11.2222 106.566 11.2222C110.753 11.2222 114.165 14.508 114.165 18.5397C114.165 22.5873 110.753 25.873 106.566 25.873Z" fill="#212121"/>
<path id="Vector_25" d="M40.2029 9.04762C38.093 7.47619 35.4557 6.53969 32.5875 6.53969C25.7139 6.53969 20.126 11.9206 20.126 18.5397C20.126 25.1587 25.7139 30.5397 32.5875 30.5397C35.4557 30.5397 38.093 29.6032 40.2029 28.0317V30.1587H45.0655V6.93651H40.2029V9.04762ZM32.5875 25.873C28.4007 25.873 24.9721 22.5873 24.9721 18.5397C24.9721 14.5079 28.3842 11.2222 32.5875 11.2222C36.7743 11.2222 40.2029 14.5079 40.2029 18.5397C40.2029 22.5873 36.7908 25.873 32.5875 25.873Z" fill="#212121"/>
<path id="Vector_26" d="M15.2966 30.1587H21.4614L12.7087 17.873L20.7526 6.93652H14.6867L8.57131 15.8095H5.12625V6.93652H-0.0166016V30.1587H5.12625V20.7302H8.91746L15.2966 30.1587Z" fill="#212121"/>
</g>
</g>
<defs>
<clipPath id="clip0_103_945">
<rect width="120" height="40" fill="white"/>
</clipPath>
</defs>
</svg>
