<svg width="80" height="26" viewBox="0 0 80 26" fill="none" xmlns="http://www.w3.org/2000/svg">
<g id="KAMA logo" clip-path="url(#clip0_194_4909)">
<g id="Group">
<path id="Vector" d="M63.8262 1.76429H64.2438C64.2548 1.76429 64.2768 1.76429 64.2878 1.76429H64.3207L64.6614 2.41429H64.9361L64.5625 1.70239C64.6614 1.66112 64.7383 1.59921 64.7933 1.51667C64.8592 1.42381 64.8922 1.32064 64.8922 1.21746C64.8922 1.11429 64.8702 1.02143 64.8152 0.938894C64.7603 0.856354 64.6944 0.784132 64.5955 0.742863C64.5076 0.691275 64.4086 0.670639 64.2988 0.670639H63.5625V2.41429H63.8152V1.76429H63.8262ZM63.8262 0.876988H64.2878C64.3537 0.876988 64.4086 0.897623 64.4636 0.918257C64.5185 0.94921 64.5625 0.990481 64.5955 1.04207C64.6284 1.09366 64.6394 1.15556 64.6394 1.20715C64.6394 1.26905 64.6284 1.32064 64.5955 1.37223C64.5625 1.42381 64.5185 1.46508 64.4636 1.49604C64.4086 1.52699 64.3537 1.53731 64.2878 1.53731H63.8262V0.876988Z" fill="white"/>
<path id="Vector_2" d="M63.3523 2.85794C63.605 2.99207 63.8797 3.06429 64.1764 3.06429C64.4731 3.06429 64.7479 2.99207 65.0006 2.85794C65.2534 2.72382 65.4512 2.5381 65.594 2.31112C65.7369 2.08413 65.8138 1.8262 65.8138 1.55794C65.8138 1.28969 65.7369 1.03175 65.594 0.794451C65.4512 0.567467 65.2534 0.381751 65.0006 0.247624C64.7479 0.113497 64.4731 0.041275 64.1764 0.041275C63.8797 0.041275 63.605 0.113497 63.3523 0.247624C63.0995 0.381751 62.9017 0.567467 62.7588 0.794451C62.616 1.02144 62.5391 1.27937 62.5391 1.55794C62.5391 1.8262 62.616 2.08413 62.7588 2.31112C62.9017 2.5381 63.0995 2.72382 63.3523 2.85794ZM62.9347 0.866672C63.0665 0.660323 63.2424 0.495245 63.4512 0.381753C63.6709 0.268261 63.9127 0.206355 64.1764 0.206355C64.4402 0.206355 64.6819 0.268261 64.9017 0.381753C65.1215 0.495245 65.2973 0.660323 65.4182 0.866672C65.5501 1.07302 65.605 1.30001 65.605 1.54762C65.605 1.79524 65.5391 2.02223 65.4182 2.22858C65.2973 2.43493 65.1215 2.6 64.9017 2.7135C64.6819 2.82699 64.4402 2.88889 64.1764 2.88889C63.9127 2.88889 63.6709 2.82699 63.4512 2.7135C63.2314 2.6 63.0555 2.43493 62.9347 2.22858C62.8028 2.02223 62.7479 1.79524 62.7479 1.54762C62.7369 1.30001 62.8028 1.07302 62.9347 0.866672Z" fill="white"/>
<path id="Vector_3" d="M2.66981 23.1937C2.45003 23.1008 2.19729 23.0389 1.91158 23.0286V22.8119H1.60388V23.0286C1.32915 23.0389 1.07641 23.1008 0.84564 23.1937C0.614871 23.2968 0.439044 23.4413 0.307176 23.627C0.175308 23.8127 0.109375 24.05 0.109375 24.3183C0.109375 24.5865 0.175308 24.8135 0.307176 25.0095C0.439044 25.1952 0.614871 25.3397 0.84564 25.4429C1.06542 25.5357 1.31816 25.5976 1.60388 25.6079V25.8246H1.91158V25.6079C2.19729 25.5976 2.45003 25.5357 2.66981 25.4429C2.90058 25.3397 3.07641 25.1952 3.20828 25.0095C3.34015 24.8238 3.40608 24.5865 3.40608 24.3183C3.40608 24.05 3.34015 23.823 3.20828 23.627C3.07641 23.4413 2.88959 23.2968 2.66981 23.1937ZM1.91158 23.3071C2.12037 23.3175 2.31817 23.3587 2.49399 23.431C2.66982 23.5032 2.82366 23.6167 2.92256 23.7714C3.03245 23.9159 3.08739 24.1016 3.08739 24.3183C3.08739 24.5349 3.03245 24.7206 2.92256 24.8651C2.81267 25.0095 2.66982 25.123 2.49399 25.2056C2.31817 25.2778 2.12037 25.3191 1.91158 25.3294V23.3071ZM1.02146 25.2056C0.845637 25.1333 0.702784 25.0198 0.592894 24.8651C0.483004 24.7206 0.428059 24.5349 0.428059 24.3183C0.428059 24.1016 0.483004 23.9159 0.592894 23.7714C0.702784 23.627 0.845637 23.5135 1.02146 23.431C1.19729 23.3587 1.39509 23.3175 1.60388 23.3071V25.3191C1.39509 25.3191 1.19729 25.2778 1.02146 25.2056Z" fill="white"/>
<path id="Vector_4" d="M6.06682 22.8222H5.77011L4.40747 25.804L4.39648 25.8246H4.72615L5.06681 25.0714H6.75912L7.09978 25.8246H7.42945L6.06682 22.8222ZM5.91297 23.2143L6.63825 24.8135H5.1767L5.91297 23.2143Z" fill="white"/>
<path id="Vector_5" d="M10.539 24.1326C10.3852 24.05 10.2203 24.0087 10.0335 24.0087H9.12142V23.0905H10.7588V22.8222H8.80273V25.8246H10.0225C10.2093 25.8246 10.3742 25.7833 10.528 25.7008C10.6819 25.6183 10.8027 25.5151 10.8906 25.3706C10.9786 25.2365 11.0225 25.0714 11.0225 24.9064C11.0225 24.7413 10.9786 24.5865 10.8906 24.4524C10.8027 24.3183 10.6819 24.2151 10.539 24.1326ZM9.11043 24.2667H10.0225C10.1434 24.2667 10.2643 24.2976 10.3632 24.3492C10.4621 24.4008 10.55 24.4833 10.6159 24.5865C10.6819 24.6897 10.7148 24.7929 10.7148 24.9167C10.7148 25.0302 10.6819 25.1437 10.6159 25.2468C10.55 25.35 10.4731 25.4222 10.3632 25.4841C10.2533 25.546 10.1434 25.5667 10.0225 25.5667H9.12142V24.2667H9.11043Z" fill="white"/>
<path id="Vector_6" d="M14.2976 22.946C14.1437 22.8635 13.9569 22.8222 13.7701 22.8222H12.4844V25.8246H12.7921V24.7516H13.7811C13.9789 24.7516 14.1547 24.7103 14.3086 24.6278C14.4624 24.5453 14.5833 24.4318 14.6712 24.2873C14.7591 24.1429 14.8031 23.9675 14.8031 23.7921C14.8031 23.6064 14.7591 23.4413 14.6712 23.2968C14.5723 23.1421 14.4514 23.0286 14.2976 22.946ZM14.4844 23.7818C14.4844 23.9159 14.4514 24.0294 14.3855 24.1429C14.3195 24.246 14.2316 24.3389 14.1327 24.3905C14.0228 24.4524 13.902 24.4833 13.7701 24.4833H12.7921V23.0905H13.7591C13.891 23.0905 14.0228 23.1214 14.1327 23.1833C14.2426 23.2453 14.3305 23.3278 14.3965 23.431C14.4514 23.5341 14.4844 23.6579 14.4844 23.7818Z" fill="white"/>
<path id="Vector_7" d="M16.5069 25.3191V22.8222H16.1992V25.8246H16.452L18.5619 23.3278V25.8246H18.8695V22.8222H18.6278L16.5069 25.3191Z" fill="white"/>
<path id="Vector_8" d="M22.8257 22.8222H22.4411L21.2983 24.1429H20.8917V22.8222H20.584V25.8246H20.8917V24.4524H21.2983L22.4851 25.8246H22.8697L21.551 24.2873L22.8257 22.8222Z" fill="white"/>
<path id="Vector_9" d="M25.7055 22.8222H25.4088L24.0461 25.804L24.0352 25.8246H24.3648L24.7055 25.0714H26.3978L26.7385 25.8246H27.0681L25.7055 22.8222ZM25.5626 23.2143L26.2879 24.8135H24.8374L25.5626 23.2143Z" fill="white"/>
<path id="Vector_10" d="M32.1979 24.4008L30.9122 22.8222H30.6484V25.8246H30.9561V23.3072L32.132 24.7722H32.2418L33.4287 23.3072V25.8246H33.7473V22.8222H33.4726L32.1979 24.4008Z" fill="white"/>
<path id="Vector_11" d="M35.7589 22.9357C35.6051 23.0079 35.4842 23.1214 35.3963 23.2556C35.3084 23.3897 35.2644 23.5548 35.2644 23.7405C35.2644 23.8849 35.2974 24.0294 35.3633 24.1532C35.4293 24.277 35.5172 24.3802 35.6271 24.4627C35.737 24.5349 35.8578 24.5865 35.9897 24.6175L35.1875 25.8349H35.5501L36.3194 24.669C36.3304 24.669 36.3413 24.669 36.3523 24.669H37.3413V25.8349H37.649V22.8325H36.3084C36.0996 22.8222 35.9128 22.8532 35.7589 22.9357ZM35.671 23.4C35.7369 23.2968 35.8249 23.2246 35.9348 23.1627C36.0446 23.1111 36.1655 23.0802 36.3084 23.0802H37.3304V24.3905H36.2974C36.1545 24.3905 36.0337 24.3595 35.9238 24.3079C35.8139 24.2564 35.726 24.1738 35.671 24.081C35.6051 23.9881 35.5831 23.8643 35.5831 23.7405C35.5721 23.6167 35.6051 23.5032 35.671 23.4Z" fill="white"/>
<path id="Vector_12" d="M39.3418 25.8246H39.6495V23.0905H41.1V22.8222H39.3418V25.8246Z" fill="white"/>
<path id="Vector_13" d="M44.7593 22.8222H44.3747L43.2319 24.1429H42.8363V22.8222H42.5176V25.8246H42.8363V24.4524H43.2319L44.4187 25.8246H44.8143L43.4846 24.2873L44.7593 22.8222Z" fill="white"/>
<path id="Vector_14" d="M48.2643 22.9667C48.0006 22.8325 47.7148 22.7603 47.4072 22.7603C47.0995 22.7603 46.8137 22.8325 46.561 22.9667C46.3083 23.1008 46.0995 23.2968 45.9456 23.5341C45.7918 23.7714 45.7148 24.0397 45.7148 24.3183C45.7148 24.5968 45.7918 24.8651 45.9456 25.1024C46.0995 25.3397 46.3083 25.5254 46.561 25.6698C46.8247 25.804 47.1105 25.8762 47.4072 25.8762C47.7148 25.8762 48.0006 25.804 48.2643 25.6698C48.517 25.5357 48.7258 25.3397 48.8797 25.1024C49.0335 24.8651 49.1105 24.5968 49.1105 24.3183C49.1105 24.0294 49.0335 23.7714 48.8797 23.5341C48.7258 23.2968 48.517 23.1008 48.2643 22.9667ZM48.8028 24.3183C48.8028 24.5556 48.7368 24.7722 48.6159 24.9683C48.4951 25.1643 48.3192 25.319 48.1105 25.4325C47.9017 25.546 47.6599 25.5976 47.4072 25.5976C47.1544 25.5976 46.9236 25.5357 46.7148 25.4325C46.506 25.319 46.3302 25.1643 46.2093 24.9683C46.0885 24.7722 46.0225 24.5556 46.0225 24.3183C46.0225 24.081 46.0885 23.8643 46.2093 23.6683C46.3302 23.4722 46.506 23.3175 46.7148 23.204C46.9236 23.0905 47.1654 23.0286 47.4072 23.0286C47.6599 23.0286 47.8907 23.0905 48.1105 23.204C48.3192 23.3175 48.4951 23.4722 48.6159 23.6683C48.7368 23.8643 48.8028 24.081 48.8028 24.3183Z" fill="white"/>
<path id="Vector_15" d="M50.9132 25.3191V22.8222H50.6055V25.8246H50.8582L52.9681 23.3278V25.8246H53.2758V22.8222H53.0231L50.9132 25.3191Z" fill="white"/>
<path id="Vector_16" d="M51.44 22.327C51.4949 22.3992 51.5609 22.4611 51.6488 22.4921C51.7367 22.5333 51.8356 22.5437 51.9565 22.5437C52.0773 22.5437 52.1762 22.523 52.2641 22.4921C52.3521 22.4508 52.418 22.3992 52.4729 22.327C52.5279 22.2548 52.5609 22.1619 52.5718 22.0484V22.0278H52.3191V22.0381C52.2971 22.1103 52.2751 22.1619 52.2532 22.2135C52.2312 22.2548 52.1872 22.2857 52.1433 22.3064C52.0993 22.327 52.0334 22.3373 51.9565 22.3373C51.8795 22.3373 51.8136 22.327 51.7696 22.3064C51.7257 22.2857 51.6817 22.2548 51.6597 22.2135C51.6378 22.1722 51.6158 22.1103 51.5938 22.0381V22.0278H51.3301V22.0484C51.3521 22.1619 51.385 22.2548 51.44 22.327Z" fill="white"/>
<path id="Vector_17" d="M58.8366 24.4008L57.5508 22.8222H57.2871V25.8246H57.5948V23.3072L58.7816 24.7722H58.8915L60.0783 23.3072V25.8246H60.386V22.8222H60.1113L58.8366 24.4008Z" fill="white"/>
<path id="Vector_18" d="M62.3975 24.4214H63.958V24.1635H62.3975V23.0905H64.1778V22.8222H62.0898V25.8246H64.1997V25.5564H62.3975V24.4214Z" fill="white"/>
<path id="Vector_19" d="M67.3749 24.1326C67.2211 24.05 67.0562 24.0087 66.8694 24.0087H65.9573V23.0905H67.5947V22.8222H65.6387V25.8246H66.8584C67.0453 25.8246 67.2101 25.7833 67.3639 25.7008C67.5178 25.6183 67.6387 25.5151 67.7266 25.3706C67.8145 25.2365 67.8584 25.0714 67.8584 24.9064C67.8584 24.7413 67.8145 24.5865 67.7266 24.4524C67.6497 24.3183 67.5288 24.2151 67.3749 24.1326ZM67.5507 24.9064C67.5507 25.0199 67.5178 25.1333 67.4519 25.2365C67.3859 25.3397 67.309 25.4119 67.1991 25.4738C67.0892 25.5357 66.9793 25.5564 66.8584 25.5564H65.9573V24.2564H66.8694C66.9903 24.2564 67.1112 24.2873 67.2101 24.3389C67.309 24.4008 67.3969 24.473 67.4628 24.5762C67.5178 24.6794 67.5507 24.7929 67.5507 24.9064Z" fill="white"/>
<path id="Vector_20" d="M69.6273 24.4214H71.1767V24.1635H69.6273V23.0905H71.3965V22.8222H69.3086V25.8246H71.4185V25.5564H69.6273V24.4214Z" fill="white"/>
<path id="Vector_21" d="M73.2538 25.0405C73.2538 25.1746 73.2648 25.2778 73.2318 25.3603C73.1989 25.4429 73.1549 25.5048 73.089 25.546C73.023 25.5873 72.9351 25.6079 72.8142 25.6079H72.6934V25.8865H72.8142C72.9791 25.8865 73.1219 25.8556 73.2318 25.7937C73.3417 25.7318 73.4296 25.6389 73.4846 25.5254C73.5395 25.4119 73.5725 25.2572 73.5725 25.0714V23.1008H75.3087V25.8349H75.6164V22.8326H73.2538V25.0405Z" fill="white"/>
<path id="Vector_22" d="M79.7704 22.8222L77.6605 25.3191V22.8222H77.3418V25.8246H77.5945L79.7044 23.3278V25.8246H80.0121V22.8222H79.7704Z" fill="white"/>
<path id="Vector_23" d="M57.3298 1.49604C55.2199 1.14524 53.2419 2.21826 52.5057 4.11667L47.9452 16.0849C47.6595 16.8071 47.0002 16.7865 46.7364 16.7349C46.4617 16.6937 45.8353 16.5079 45.8353 15.7341V5.42699C45.8353 3.4254 44.3628 1.77461 42.2639 1.43413C40.154 1.08334 38.176 2.15635 37.4507 4.03413L31.2969 19.6135H34.7474L40.4947 5.08651C40.7804 4.36429 41.4397 4.38492 41.7035 4.42619C41.9782 4.46746 42.6046 4.6635 42.6046 5.42699V15.7341C42.6046 17.7357 44.0771 19.3865 46.176 19.7373C48.2859 20.0881 50.2639 19.0151 51.0002 17.1167L55.5606 5.14842C55.8463 4.42619 56.5057 4.44683 56.7694 4.49842C57.0441 4.53969 57.6705 4.7254 57.6705 5.49921V19.6032H60.9123V5.48889C60.9013 3.48731 59.4287 1.84683 57.3298 1.49604Z" fill="white"/>
<path id="Vector_24" d="M76.7603 4.50875V6.40716C75.2657 5.0762 73.2548 4.26112 71.046 4.26112C66.4636 4.26112 62.7383 7.75875 62.7383 12.0611C62.7383 16.3635 66.4636 19.8611 71.046 19.8611C73.2658 19.8611 75.2767 19.046 76.7603 17.7151V19.6032H80.002V12.0611V4.50875H76.7603ZM71.046 16.8175C68.2548 16.8175 65.9691 14.6818 65.9691 12.0508C65.9691 9.43017 68.2438 7.29446 71.046 7.29446C73.8372 7.29446 76.1119 9.43017 76.1119 12.0508C76.1119 14.6818 73.8372 16.8175 71.046 16.8175Z" fill="white"/>
<path id="Vector_25" d="M26.8026 5.88095C25.396 4.85952 23.6378 4.25079 21.7257 4.25079C17.1432 4.25079 13.418 7.74841 13.418 12.0508C13.418 16.3532 17.1432 19.8508 21.7257 19.8508C23.6378 19.8508 25.396 19.2421 26.8026 18.2206V19.6032H30.0443V4.50873H26.8026V5.88095ZM21.7257 16.8175C18.9345 16.8175 16.6487 14.6817 16.6487 12.0508C16.6487 9.43016 18.9235 7.29444 21.7257 7.29444C24.5169 7.29444 26.8026 9.43016 26.8026 12.0508C26.8026 14.6817 24.5279 16.8175 21.7257 16.8175Z" fill="white"/>
<path id="Vector_26" d="M10.199 19.6032H14.3089L8.47375 11.6175L13.8364 4.50873H9.79243L5.71551 10.2762H3.4188V4.50873H-0.00976562V19.6032H3.4188V13.4746H5.94627L10.199 19.6032Z" fill="white"/>
</g>
</g>
<defs>
<clipPath id="clip0_194_4909">
<rect width="80" height="26" fill="white"/>
</clipPath>
</defs>
</svg>
