<svg width="18" height="18" viewBox="0 0 18 18" fill="none" xmlns="http://www.w3.org/2000/svg">
<path d="M3.59469 9.75C2.58134 8.0332 1.91091 6.03524 1.63816 3.81089C1.62176 3.67717 1.61356 3.61031 1.61516 3.47621C1.62604 2.56117 2.4411 1.64007 3.34801 1.5179C3.48091 1.5 3.59274 1.5 3.81641 1.5V1.5C4.05108 1.5 4.16842 1.5 4.27281 1.51099C5.03259 1.59096 5.68043 2.09678 5.94229 2.81448C5.97827 2.91309 6.00673 3.02693 6.06365 3.25459L6.11235 3.44941C6.25096 4.00385 6.32027 4.28107 6.34993 4.55074C6.44905 5.45201 6.23903 6.36023 5.75428 7.12649C5.60925 7.35575 5.42527 7.5744 5.05732 8.0117L3.59469 9.75ZM3.59469 9.75C4.68602 11.5989 6.17506 13.1217 7.9934 14.25M7.9934 14.25C9.76659 15.3503 11.8529 16.0754 14.1889 16.3618C14.3228 16.3782 14.3897 16.3864 14.5238 16.3848C15.4388 16.374 16.3599 15.5589 16.4821 14.652C16.5 14.5191 16.5 14.3997 16.5 14.1609V14.1609C16.5 13.9413 16.5 13.8316 16.489 13.7272C16.409 12.9674 15.9032 12.3196 15.1855 12.0577C15.0869 12.0217 14.9731 11.9933 14.7454 11.9364L14.4711 11.8678C13.8587 11.7147 13.5524 11.6381 13.2521 11.6097C12.4679 11.5354 11.6792 11.6944 10.985 12.0666C10.7191 12.2091 10.4664 12.3983 9.96105 12.7767L7.9934 14.25Z" stroke="#484848" stroke-width="1.5" stroke-linecap="round" stroke-linejoin="round"/>
</svg>
