<?xml version="1.0" standalone="no"?>
<!DOCTYPE svg PUBLIC "-//W3C//DTD SVG 20010904//EN"
 "http://www.w3.org/TR/2001/REC-SVG-20010904/DTD/svg10.dtd">
<svg version="1.0" xmlns="http://www.w3.org/2000/svg"
 width="1920.000000pt" height="1920.000000pt" viewBox="0 0 1920.000000 1920.000000"
 preserveAspectRatio="xMidYMid meet">
<metadata>
Created by potrace 1.14, written by Peter Selinger 2001-2017
</metadata>
<g transform="translate(0.000000,1920.000000) scale(0.100000,-0.100000)"
fill="#000000" stroke="none">
<path d="M15279 12771 c-26 -9 -53 -21 -60 -26 -8 -6 -26 -17 -41 -25 -36 -17
-118 -104 -118 -123 0 -9 -5 -17 -11 -19 -5 -2 -11 -10 -13 -18 -2 -8 -7 -24
-12 -35 -11 -24 -12 -168 -2 -208 11 -45 58 -119 102 -160 34 -32 107 -79 126
-82 3 0 10 -3 15 -6 42 -27 194 -27 269 0 276 97 349 427 137 618 -32 29 -102
69 -156 89 -41 15 -189 12 -236 -5z m216 -36 c102 -27 173 -84 217 -176 30
-60 40 -141 26 -198 -5 -20 -10 -43 -13 -53 -13 -55 -124 -186 -146 -172 -5 3
-9 1 -9 -4 0 -6 -29 -18 -65 -27 -130 -36 -265 -2 -353 87 -39 39 -79 104 -74
121 1 4 -2 16 -7 26 -12 21 -15 91 -7 143 17 107 115 215 226 247 25 8 50 15
55 16 27 8 97 3 150 -10z"/>
<path d="M15262 12630 c-9 -5 -11 -419 -2 -421 20 -5 50 -5 51 0 1 3 2 40 3
81 l1 74 60 1 60 0 37 -70 c21 -38 39 -73 40 -77 4 -10 68 -20 68 -11 0 5 -18
43 -40 86 -22 43 -40 82 -40 87 0 5 9 12 20 15 11 3 20 13 20 21 0 8 4 14 9
14 11 0 25 48 22 75 -4 43 -7 52 -26 76 -35 42 -69 53 -176 54 -55 0 -103 -2
-107 -5z m230 -78 c23 -27 26 -35 18 -64 -16 -54 -32 -63 -117 -63 l-76 0 0
74 c1 44 5 76 12 81 7 3 39 6 73 4 55 -2 65 -5 90 -32z"/>
<path d="M9887 12463 c-1 -1 -29 -4 -62 -8 -74 -9 -100 -13 -100 -15 0 -1 -11
-3 -24 -6 -75 -14 -283 -104 -335 -145 -247 -196 -303 -279 -456 -684 -40
-104 -78 -205 -87 -223 -8 -18 -16 -41 -18 -51 -2 -11 -10 -32 -19 -49 -8 -16
-12 -32 -9 -36 4 -3 1 -6 -5 -6 -7 0 -12 -6 -12 -14 0 -13 -45 -136 -72 -196
-6 -14 -12 -29 -14 -35 -2 -9 -77 -206 -99 -260 -4 -11 -9 -24 -11 -30 -2 -5
-76 -197 -164 -425 -89 -228 -173 -446 -187 -485 -14 -38 -31 -83 -38 -100
-16 -37 -59 -148 -61 -155 -1 -6 -12 -36 -24 -65 -4 -11 -20 -51 -35 -90 -15
-38 -30 -77 -34 -85 -4 -8 -14 -36 -22 -62 -7 -27 -17 -48 -21 -48 -4 0 -8 -7
-8 -15 0 -12 -54 -156 -89 -240 -5 -11 -37 -94 -71 -185 -35 -91 -86 -226
-115 -300 -62 -160 -67 -175 -64 -175 1 0 -4 -11 -11 -25 -8 -14 -15 -32 -16
-40 -2 -8 -7 -23 -13 -35 -25 -50 -78 -196 -72 -199 3 -2 189 -4 413 -4 l407
0 47 122 c26 66 67 173 91 236 25 63 55 142 68 175 13 33 35 90 49 127 14 36
26 71 26 77 0 6 4 11 8 11 5 0 9 7 9 15 0 8 11 43 26 77 25 61 68 171 129 333
16 44 34 89 38 100 25 58 80 203 80 210 0 4 7 21 15 38 14 32 145 369 212 547
19 52 41 109 48 125 7 17 34 84 59 150 60 159 64 169 63 175 0 3 9 23 20 45
12 22 21 42 21 45 0 3 5 18 11 33 6 16 11 31 11 34 0 3 6 19 14 36 21 46 80
202 76 202 -1 0 7 18 19 40 11 22 21 44 21 50 0 9 45 128 71 190 5 11 40 102
79 203 38 100 78 199 89 220 21 42 88 105 102 96 5 -3 9 -1 9 5 0 13 63 25
119 23 104 -4 203 -64 237 -144 16 -41 18 -123 20 -1403 1 -748 5 -1371 8
-1385 3 -14 9 -38 11 -55 33 -189 168 -416 325 -545 30 -25 57 -47 60 -50 3
-3 23 -17 46 -32 130 -84 303 -146 459 -164 69 -8 233 -8 275 -1 19 4 47 9 63
12 15 3 37 7 50 9 12 2 33 9 47 14 14 5 30 11 35 12 42 10 158 61 187 81 14
11 29 19 33 19 14 0 133 96 187 152 31 32 78 87 103 123 44 61 122 207 130
243 2 9 22 63 44 120 21 56 40 105 40 107 0 3 7 20 14 38 8 17 22 57 32 87 10
30 22 61 28 68 5 6 6 12 2 12 -4 0 -3 6 2 13 6 6 22 46 36 87 14 41 60 165
102 275 42 110 78 207 80 216 3 15 43 122 65 174 22 53 54 151 52 158 -1 4 3
7 8 7 6 0 10 6 10 14 0 12 57 169 91 251 7 17 13 35 14 40 1 10 8 30 25 70 5
11 54 144 110 295 102 279 131 357 155 420 17 45 28 74 30 80 1 3 5 14 9 25 5
11 21 54 36 95 15 41 31 84 35 95 4 11 9 25 10 30 10 41 83 206 103 233 14 18
45 45 70 59 77 45 220 34 299 -24 36 -26 72 -73 79 -103 2 -11 6 -29 9 -41 2
-11 4 -39 4 -62 0 -61 1 -121 4 -219 1 -49 -1 -88 -5 -88 -4 0 -5 -6 -2 -14 8
-21 10 -146 2 -146 -4 0 -3 -13 2 -29 4 -16 6 -32 3 -35 -3 -2 -4 -22 -4 -43
1 -21 1 -60 1 -88 -1 -49 -1 -63 1 -87 1 -17 0 -157 -1 -183 -1 -11 -1 -27 -1
-35 2 -49 -1 -125 -5 -132 -3 -4 0 -8 6 -8 7 0 8 -6 2 -17 -5 -9 -7 -28 -3
-42 3 -14 5 -39 4 -56 -2 -16 -3 -43 -3 -60 0 -16 -1 -57 -1 -90 0 -33 1 -67
1 -75 0 -8 0 -26 -1 -40 0 -14 0 -31 0 -37 1 -7 1 -19 2 -25 1 -17 0 -157 -1
-183 -1 -11 -1 -26 -1 -32 0 -7 1 -38 1 -68 -1 -30 -1 -70 -1 -87 1 -18 0 -60
0 -93 0 -33 1 -67 1 -75 0 -8 0 -26 -1 -40 0 -14 0 -31 0 -37 1 -7 1 -19 2
-25 1 -17 0 -157 -1 -183 -1 -11 -1 -26 -1 -32 1 -7 1 -19 2 -25 0 -16 0 -85
-1 -153 -1 -49 -1 -63 1 -87 1 -17 0 -157 -1 -183 -1 -11 -1 -27 -1 -35 2 -49
-1 -125 -5 -132 -3 -4 0 -8 6 -8 7 0 8 -6 1 -19 -6 -10 -8 -21 -5 -23 8 -8 10
-118 2 -118 -4 0 -5 -6 -2 -14 8 -22 10 -146 2 -146 -4 0 -5 -7 -2 -15 4 -8 7
-34 8 -57 l1 -43 385 0 385 0 2 1770 c1 1587 -1 1826 -21 1914 -26 116 -82
246 -149 344 -47 68 -152 178 -212 222 -22 17 -42 32 -45 35 -42 43 -294 149
-390 164 -19 3 -46 8 -60 12 -32 8 -282 13 -294 6 -5 -3 -23 -6 -40 -7 -17 -1
-51 -8 -76 -14 -25 -6 -56 -14 -69 -17 -13 -3 -44 -14 -67 -24 -24 -11 -47
-20 -53 -20 -12 0 -152 -80 -169 -97 -7 -7 -18 -13 -23 -13 -18 0 -196 -186
-234 -245 -46 -71 -100 -177 -120 -235 -1 -3 -4 -12 -8 -20 -12 -30 -89 -235
-91 -245 -2 -5 -6 -17 -9 -25 -8 -20 -82 -218 -112 -300 -13 -36 -35 -96 -50
-135 -14 -38 -40 -108 -56 -154 -17 -46 -35 -95 -41 -110 -6 -14 -12 -28 -13
-31 -1 -3 -5 -13 -8 -22 -15 -39 -20 -53 -23 -63 -1 -5 -12 -35 -24 -65 -12
-30 -23 -59 -24 -65 -2 -5 -6 -17 -9 -25 -7 -15 -23 -58 -97 -260 -21 -58 -55
-148 -75 -200 -20 -52 -38 -102 -40 -110 -2 -8 -29 -80 -60 -160 -31 -80 -57
-153 -58 -162 0 -10 -4 -18 -7 -18 -3 0 -12 -21 -19 -47 -8 -27 -17 -52 -21
-58 -4 -5 -17 -39 -30 -75 -19 -58 -104 -287 -165 -445 -12 -33 -31 -82 -41
-110 -57 -159 -166 -216 -333 -175 -73 18 -121 57 -156 127 l-24 46 0 1318 c0
725 -3 1351 -7 1391 -7 86 -42 213 -83 303 -147 323 -468 544 -846 581 -58 6
-175 11 -178 7z"/>
<path d="M5177 11754 c-1 -1 -51 -4 -112 -7 -253 -15 -499 -80 -740 -197 -146
-72 -186 -95 -295 -174 -110 -79 -124 -91 -229 -189 -57 -54 -196 -212 -226
-259 -5 -8 -23 -35 -40 -59 -42 -62 -134 -226 -140 -249 -1 -3 -11 -27 -23
-53 -12 -27 -22 -55 -22 -62 0 -7 -4 -15 -8 -17 -17 -7 -88 -271 -99 -368 -2
-25 -8 -64 -12 -87 -11 -55 -10 -310 0 -403 13 -119 57 -316 86 -390 3 -8 7
-21 9 -28 1 -8 9 -28 17 -45 8 -18 29 -66 48 -107 18 -41 46 -97 61 -123 15
-26 28 -50 28 -53 0 -3 11 -20 25 -38 14 -18 25 -36 25 -40 0 -9 88 -123 154
-201 169 -198 402 -375 651 -494 50 -24 95 -44 100 -46 6 -1 24 -8 40 -14 30
-13 136 -49 165 -56 8 -2 39 -11 68 -19 28 -8 52 -12 52 -10 0 3 8 1 18 -4 9
-6 42 -13 72 -17 30 -4 66 -9 80 -11 157 -24 501 -23 590 1 8 2 26 6 40 9 14
2 43 7 65 11 143 25 401 116 525 184 98 53 144 81 204 122 39 26 72 46 74 44
2 -2 5 -77 6 -167 l1 -163 385 0 385 0 3 1858 2 1857 -389 0 -388 0 0 -160 c0
-89 -2 -162 -4 -165 -3 -2 -45 22 -94 54 -141 91 -384 211 -459 227 -11 2 -40
10 -66 19 -26 9 -55 18 -66 20 -71 17 -164 37 -194 41 -19 2 -44 7 -56 9 -37
8 -310 25 -317 19z m177 -759 c52 -5 77 -10 176 -31 24 -5 93 -27 135 -44 31
-12 187 -89 210 -103 22 -13 92 -64 115 -84 91 -76 146 -133 230 -240 51 -64
128 -220 160 -325 47 -149 62 -349 39 -505 -13 -85 -54 -224 -84 -285 -13 -25
-21 -49 -18 -52 4 -3 1 -6 -5 -6 -7 0 -12 -5 -12 -12 0 -13 -81 -141 -92 -146
-5 -2 -8 -8 -8 -13 0 -39 -302 -309 -346 -309 -8 0 -14 -4 -14 -9 0 -13 -166
-86 -260 -115 -143 -43 -206 -51 -385 -51 -238 0 -417 53 -655 192 -25 14 -47
29 -50 32 -3 3 -27 24 -55 45 -238 188 -399 478 -432 781 -10 97 -4 272 11
324 3 9 7 27 10 41 13 66 31 130 38 130 5 0 8 8 8 18 0 23 91 201 127 250 42
56 44 59 98 120 56 65 174 166 250 213 116 73 293 145 404 164 19 3 38 8 42
10 4 3 37 7 74 9 37 3 69 6 70 8 5 5 156 1 219 -7z"/>
<path d="M16858 11745 c-2 -2 -25 -6 -53 -9 -114 -15 -134 -18 -215 -37 -178
-41 -296 -84 -465 -170 -258 -130 -477 -306 -650 -524 -22 -27 -43 -52 -46
-55 -18 -16 -124 -189 -166 -270 -195 -378 -254 -815 -166 -1230 8 -41 17 -82
18 -90 2 -8 4 -16 5 -17 2 -2 3 -6 4 -10 53 -203 172 -438 324 -643 69 -92
256 -281 337 -341 33 -24 62 -47 65 -50 9 -12 175 -116 245 -153 80 -44 233
-108 308 -132 115 -35 221 -61 272 -68 17 -3 42 -7 55 -10 97 -21 438 -28 555
-12 33 5 71 10 85 11 14 1 36 5 50 9 14 3 36 8 50 11 72 14 92 19 170 42 47
13 94 28 105 33 11 5 45 19 75 30 88 34 190 83 190 92 0 4 5 8 12 8 15 0 152
80 156 92 2 4 10 8 18 8 8 0 14 5 14 10 0 6 5 10 11 10 9 0 139 101 177 137 7
7 16 13 20 13 4 0 6 -102 6 -228 l-2 -227 389 0 389 0 0 1857 0 1858 -389 0
-389 0 0 -225 c0 -124 -3 -226 -7 -227 -6 -3 -44 27 -94 72 -10 8 -39 31 -67
50 -27 19 -50 38 -52 42 -2 4 -9 8 -16 8 -7 0 -21 8 -32 18 -55 49 -308 169
-464 220 -232 75 -389 99 -647 100 -100 0 -183 -1 -185 -3z m336 -749 c38 -3
71 -8 75 -10 3 -2 24 -7 46 -10 71 -11 226 -68 321 -117 166 -87 318 -222 430
-386 39 -57 85 -145 135 -258 51 -116 77 -381 54 -540 -10 -68 -11 -73 -26
-125 -7 -25 -13 -47 -14 -50 -11 -50 -93 -233 -107 -238 -4 -2 -8 -8 -8 -14 0
-37 -195 -258 -293 -332 -56 -42 -230 -148 -239 -146 -2 1 -19 -5 -38 -13 -87
-35 -69 -29 -155 -53 -110 -30 -216 -42 -349 -39 -122 3 -150 6 -216 20 -105
22 -136 29 -145 35 -5 4 -28 13 -50 20 -42 14 -166 70 -175 80 -3 3 -18 12
-35 20 -16 8 -32 17 -35 20 -3 3 -32 25 -65 49 -79 59 -166 143 -218 211 -23
30 -44 57 -47 60 -13 12 -69 111 -102 180 -30 63 -53 126 -64 175 -1 6 -7 29
-13 53 -30 110 -33 340 -6 472 20 101 87 276 126 332 11 14 19 29 19 33 0 3
24 38 53 78 87 117 212 235 322 303 17 10 32 21 35 24 25 28 283 129 370 146
150 28 269 34 414 20z"/>
<path d="M0 9832 l0 -1858 408 1 407 0 2 55 c1 30 2 195 2 365 0 171 0 317 0
325 0 8 0 116 0 240 -1 124 0 232 0 240 3 60 -1 255 -5 262 -12 19 47 23 323
23 l288 -1 87 -129 c48 -72 91 -135 95 -140 8 -10 49 -70 248 -365 65 -96 179
-265 254 -375 74 -110 181 -267 237 -350 l101 -150 484 -1 c266 0 487 1 492 3
4 3 -3 18 -15 35 -13 16 -30 40 -38 53 -37 56 -100 144 -112 156 -12 13 -77
106 -103 148 -5 9 -12 18 -15 21 -3 3 -39 52 -80 110 -41 58 -78 107 -82 108
-5 2 -8 10 -8 18 0 8 -4 14 -10 14 -5 0 -10 6 -10 14 0 8 -3 16 -7 18 -8 3
-83 105 -133 180 -14 21 -28 38 -32 38 -5 0 -8 5 -8 11 0 5 -11 24 -25 42 -20
26 -258 360 -307 430 -23 33 -157 222 -165 232 -16 20 -159 222 -195 275 -21
30 -38 59 -38 64 0 4 17 30 38 57 20 26 48 64 62 84 14 20 30 42 35 48 6 7 31
41 57 77 26 36 51 70 56 75 4 6 54 73 110 150 145 198 380 518 389 530 5 6 20
26 33 45 14 19 33 43 42 54 10 11 18 23 18 27 0 4 6 14 13 21 10 10 234 313
344 465 10 14 24 31 31 38 6 8 12 16 12 20 0 4 7 13 15 21 8 9 15 20 15 25 0
5 -191 9 -479 9 l-480 0 -75 -107 c-42 -60 -80 -115 -86 -123 -5 -8 -36 -53
-68 -100 -301 -439 -528 -766 -534 -768 -4 -2 -8 -9 -8 -15 0 -7 -9 -23 -20
-37 -11 -14 -58 -79 -104 -145 l-83 -120 -276 -3 -277 -2 -1 22 c-1 13 -1 27
0 32 1 4 1 182 1 395 -1 212 -1 392 -1 399 2 46 3 132 1 222 -1 58 -1 110 0
115 1 6 2 61 1 123 l-1 112 -410 0 -410 0 0 -1858z"/>
<path d="M12325 7352 c12 -46 44 -81 87 -93 75 -20 149 1 183 51 28 41 26 63
-7 67 -21 3 -29 -2 -40 -24 -30 -63 -129 -68 -154 -8 -10 26 -19 32 -44 33
-29 1 -31 -1 -25 -26z"/>
<path d="M11273 7184 c-29 -7 -72 -23 -95 -35 -48 -25 -158 -132 -158 -154 0
-8 -4 -15 -10 -15 -5 0 -9 -3 -8 -7 0 -5 -2 -15 -5 -23 -36 -90 -29 -245 14
-296 6 -8 8 -14 5 -14 -4 0 -2 -6 3 -12 122 -151 224 -202 389 -193 281 14
458 293 341 540 -27 58 -109 143 -163 171 -95 48 -217 63 -313 38z m253 -89
c69 -33 96 -55 133 -110 84 -124 61 -304 -51 -399 -75 -65 -121 -81 -227 -80
-114 0 -166 20 -237 86 -80 75 -112 178 -91 288 21 107 125 211 242 241 61 16
169 4 231 -26z"/>
<path d="M385 7162 c3 -25 -2 -29 -50 -35 -161 -23 -273 -112 -300 -237 -13
-57 -8 -147 9 -181 9 -18 16 -37 16 -43 0 -14 76 -96 89 -96 5 0 11 -4 13 -8
8 -20 145 -63 213 -67 5 0 10 -7 11 -15 1 -8 2 -20 2 -25 1 -6 18 -11 37 -12
23 0 34 3 32 11 -9 25 14 43 63 50 126 17 225 83 271 181 31 66 32 188 2 255
-48 107 -176 185 -310 189 -18 1 -23 7 -23 29 0 25 -3 27 -39 27 -35 1 -39 -2
-36 -23z m-1 -344 c-1 -134 -2 -246 -3 -249 -1 -9 -94 9 -134 26 -41 17 -100
72 -122 114 -35 69 -22 196 28 251 51 57 124 93 200 98 l32 2 -1 -242z m225
207 c47 -24 73 -48 107 -100 24 -38 27 -166 4 -211 -38 -77 -120 -131 -215
-141 l-50 -5 2 203 c1 112 2 224 3 248 l0 44 51 -7 c29 -4 73 -18 98 -31z"/>
<path d="M1391 7180 c-6 -3 -22 -33 -36 -65 -15 -33 -40 -88 -56 -123 -16 -35
-29 -65 -29 -67 0 -5 -21 -51 -89 -198 -23 -49 -41 -91 -41 -94 0 -6 -55 -128
-71 -155 -15 -28 -11 -34 24 -33 36 0 60 12 52 26 -4 5 -1 9 4 9 6 0 11 6 11
13 0 8 13 41 30 75 l30 62 197 0 c199 -1 222 -5 224 -39 0 -9 15 -45 32 -81
31 -62 34 -65 70 -66 20 0 37 1 37 3 0 4 -11 28 -66 151 -13 29 -24 54 -24 56
0 3 -15 37 -34 78 -54 117 -79 173 -80 178 -1 3 -28 64 -60 137 -53 119 -61
131 -87 135 -16 3 -33 2 -38 -2z m79 -210 c23 -52 49 -113 59 -135 49 -109 61
-135 61 -139 0 -2 -76 -4 -170 -4 -93 0 -170 4 -170 8 0 4 14 39 32 77 17 37
32 73 34 78 1 6 23 54 48 108 25 54 46 103 46 109 0 24 19 -9 60 -102z"/>
<path d="M2120 7180 c-4 -3 -7 -169 -7 -370 l2 -365 180 1 c162 0 184 2 220
21 85 45 123 105 129 203 5 91 -83 195 -184 215 -8 2 -72 4 -142 4 l-128 1 0
113 0 112 193 0 c105 -1 195 0 198 1 3 2 3 18 1 36 l-4 33 -225 0 c-124 0
-229 -2 -233 -5z m371 -377 c42 -26 79 -89 79 -133 0 -35 -25 -95 -50 -120
-31 -31 -77 -41 -194 -43 -65 -1 -122 0 -127 3 -9 6 -14 293 -5 308 3 5 63 8
134 7 112 -1 132 -4 163 -22z"/>
<path d="M3012 7179 c-16 -6 -17 -37 -17 -370 l0 -363 38 -2 37 -1 0 132 0
132 128 0 c181 0 227 11 286 69 53 54 80 149 63 224 -18 81 -100 160 -180 175
-47 9 -333 12 -355 4z m374 -83 c98 -63 119 -179 46 -263 -41 -48 -72 -56
-224 -58 l-138 -2 0 172 0 171 144 -1 c121 -1 148 -4 172 -19z"/>
<path d="M3893 7177 c-4 -7 -8 -662 -4 -723 1 -6 14 -11 31 -10 32 1 17 -16
387 435 112 137 143 171 144 159 1 -7 2 -143 3 -302 l1 -290 35 0 35 -1 2 367
c1 202 -1 369 -5 371 -4 2 -20 0 -37 -5 -22 -7 -70 -58 -185 -199 -85 -105
-162 -198 -170 -207 -25 -28 -114 -137 -135 -165 -11 -15 -23 -27 -26 -27 -4
0 -6 135 -6 299 l2 299 -33 4 c-18 2 -36 0 -39 -5z"/>
<path d="M4968 7182 c-26 -3 -28 -7 -28 -50 -4 -447 -4 -682 0 -683 48 -8 69
-6 72 9 2 10 3 86 3 170 l-2 152 52 0 c49 0 52 -2 88 -47 20 -27 51 -65 69
-85 18 -20 48 -55 66 -76 18 -22 48 -58 67 -79 19 -21 35 -41 35 -44 0 -8 90
-8 90 0 0 4 -12 20 -27 37 -16 17 -46 52 -68 80 -54 66 -62 76 -139 167 -36
44 -66 84 -66 89 0 6 26 41 57 77 32 36 62 71 68 78 5 7 17 20 25 30 63 73
140 168 140 173 0 3 -19 4 -42 3 -45 -1 -42 1 -131 -106 -18 -21 -41 -49 -52
-61 -18 -20 -59 -70 -111 -134 -15 -17 -31 -23 -70 -25 l-51 -2 1 158 c1 96
-3 161 -9 166 -5 3 -22 5 -37 3z"/>
<path d="M6123 7182 c-18 -2 -33 -7 -33 -12 0 -10 -46 -116 -61 -140 -5 -8
-12 -22 -15 -30 -11 -28 -57 -134 -86 -200 -16 -36 -37 -81 -45 -100 -9 -19
-26 -57 -39 -84 -13 -28 -24 -56 -24 -63 0 -7 -4 -13 -10 -13 -6 0 -9 -3 -8
-7 1 -5 -6 -25 -15 -47 -9 -21 -17 -39 -17 -41 0 -1 18 -2 39 -2 l39 0 39 91
39 91 201 2 c146 1 204 -1 210 -10 5 -7 24 -47 43 -89 18 -43 35 -79 39 -79
39 -7 71 -7 71 0 0 5 -16 44 -35 85 -19 42 -35 78 -35 80 0 2 -13 32 -29 67
-16 35 -30 69 -31 74 -1 6 -8 21 -15 35 -13 24 -21 42 -100 220 -87 196 -73
177 -122 172z m23 -120 c1 -8 25 -63 66 -150 16 -35 33 -73 38 -85 4 -12 20
-47 33 -78 l26 -57 -170 0 c-135 -1 -169 2 -169 13 0 7 16 48 36 92 20 43 42
92 49 108 7 17 24 55 38 85 13 30 27 64 31 74 6 17 20 15 22 -2z"/>
<path d="M7368 7179 c-10 -7 -13 -82 -13 -369 0 -198 2 -360 5 -361 3 0 20 -2
38 -4 l32 -3 0 310 0 310 92 -118 c51 -66 94 -121 97 -124 4 -3 26 -31 50 -62
24 -32 47 -58 52 -58 13 0 36 25 99 105 30 39 87 112 127 163 45 58 73 86 74
75 0 -10 0 -139 0 -288 0 -148 2 -280 5 -291 3 -17 11 -21 39 -21 l35 1 0 367
0 367 -24 4 c-34 7 -49 -4 -103 -75 -26 -34 -51 -66 -56 -72 -13 -17 -141
-178 -165 -210 l-24 -30 -21 25 c-12 14 -33 41 -47 59 -14 18 -30 38 -35 44
-6 7 -26 32 -45 57 -19 25 -42 53 -50 62 -8 9 -35 43 -60 76 -44 59 -75 77
-102 61z"/>
<path d="M9456 7182 c-10 -2 -15 -10 -12 -18 3 -7 1 -16 -5 -19 -5 -4 -6 -11
-3 -17 8 -13 8 -123 0 -137 -4 -5 -3 -12 2 -14 4 -3 6 -32 4 -64 -1 -32 -3
-62 -3 -68 0 -5 2 -55 4 -110 2 -55 -1 -108 -5 -117 -5 -11 -5 -18 1 -18 6 0
6 -11 1 -29 -4 -16 -5 -32 -2 -36 3 -3 6 -25 7 -48 0 -41 1 -42 35 -42 l35 0
0 335 0 335 173 0 c107 0 172 4 173 10 0 6 2 20 3 33 2 18 -3 22 -23 23 -97 3
-371 3 -385 1z"/>
<path d="M10217 7178 c-9 -5 -12 -106 -12 -368 -1 -314 1 -361 15 -365 18 -5
47 -2 55 7 4 3 7 79 7 167 l0 161 47 0 c43 0 50 -4 82 -41 19 -23 63 -76 99
-118 36 -43 84 -99 107 -126 37 -45 45 -49 87 -51 25 -1 46 1 46 3 0 3 -22 31
-48 62 -27 31 -57 67 -68 80 -10 13 -26 31 -35 40 -8 9 -48 55 -88 103 l-73
88 34 42 c18 24 40 50 48 58 8 9 31 35 50 59 41 50 93 110 137 160 17 20 30
37 28 39 -10 11 -90 2 -99 -10 -19 -25 -176 -213 -236 -281 -17 -19 -35 -28
-55 -29 -68 -1 -65 -5 -63 80 1 43 -2 83 -5 90 -4 6 -3 13 1 16 5 3 8 15 6 28
-1 13 -3 43 -3 68 -1 42 -3 45 -27 45 -14 0 -31 -3 -37 -7z"/>
<path d="M12170 7181 l-25 -6 1 -360 c1 -198 2 -363 3 -367 0 -4 13 -7 28 -6
30 3 38 11 134 128 33 41 71 86 82 100 12 14 40 48 61 75 22 28 47 57 55 66 9
9 23 25 31 36 73 91 137 171 152 187 17 19 18 18 19 -40 0 -32 1 -169 2 -304
l2 -245 35 0 35 0 0 368 c1 323 -1 367 -15 368 -42 3 -50 -3 -127 -97 -17 -21
-43 -52 -57 -69 -13 -16 -68 -84 -122 -150 -101 -123 -108 -132 -134 -162 -8
-9 -36 -44 -62 -76 l-48 -60 -1 264 c0 145 0 283 1 305 1 45 -9 54 -50 45z"/>
<path d="M13768 7182 c-15 -3 -18 -16 -19 -90 0 -100 0 -584 1 -624 0 -24 3
-26 37 -24 l36 2 0 302 c0 166 2 302 6 302 3 0 22 -22 41 -47 19 -26 42 -55
50 -64 8 -8 22 -26 30 -39 8 -12 22 -30 30 -39 9 -9 33 -38 55 -66 22 -27 43
-51 47 -53 5 -2 8 -10 8 -17 0 -7 7 -16 15 -19 16 -6 55 13 55 27 0 4 9 18 20
30 12 12 46 55 78 97 31 41 67 86 80 100 12 14 33 40 45 57 12 18 25 33 29 33
3 0 6 -111 6 -247 0 -137 1 -273 1 -304 l1 -57 35 0 c34 0 35 1 36 42 2 138 1
698 -2 700 -2 2 -19 1 -36 -1 -25 -4 -42 -17 -70 -57 -21 -28 -42 -55 -49 -61
-6 -5 -26 -30 -45 -55 -18 -25 -36 -47 -39 -50 -3 -3 -21 -26 -40 -52 -18 -27
-36 -48 -40 -48 -3 0 -14 -13 -23 -30 -10 -16 -21 -30 -25 -30 -4 0 -74 85
-157 189 -82 104 -157 191 -165 193 -8 2 -23 2 -32 0z"/>
<path d="M14917 7182 c-16 -3 -17 -33 -15 -370 l3 -367 251 -1 250 0 2 33 3
33 -215 -2 c-184 -3 -215 -1 -218 12 -2 8 -4 71 -3 140 l0 125 165 2 c91 1
175 2 188 2 18 1 22 7 22 31 0 17 -5 30 -12 31 -7 0 -92 1 -188 2 l-174 2 -1
127 c-1 80 3 129 10 131 5 2 101 3 212 3 127 -1 204 3 206 9 2 6 1 21 -2 35
l-6 25 -231 0 c-127 0 -238 -1 -247 -3z"/>
<path d="M15758 7180 c-1 -3 -2 -170 -3 -371 l-2 -366 171 2 c195 2 215 6 273
49 133 99 108 309 -45 373 -51 21 -51 21 -194 22 l-128 1 0 113 0 113 188 -1
c103 -1 192 0 197 2 9 3 11 31 6 63 -1 3 -104 5 -231 5 -126 0 -231 -2 -232
-5z m363 -367 c16 -8 41 -31 57 -51 53 -68 38 -163 -34 -218 -36 -28 -41 -29
-176 -32 l-138 -4 0 162 0 161 132 -2 c88 -1 141 -7 159 -16z"/>
<path d="M16641 7175 c-4 -5 -7 -172 -7 -370 l1 -360 253 -1 252 0 0 34 c0 30
-3 33 -27 32 -16 -1 -112 -2 -215 -1 l-188 1 0 139 0 139 181 0 c99 0 183 3
187 6 13 13 7 56 -8 57 -8 0 -93 0 -187 0 l-173 0 0 133 0 132 206 -1 c113 0
209 2 212 5 11 8 9 60 -2 61 -110 6 -480 2 -485 -6z"/>
<path d="M18589 7182 l-27 -3 1 -232 c0 -128 -2 -236 -3 -242 -1 -5 -2 -12 -1
-15 2 -3 3 -60 3 -127 l1 -123 31 3 c26 2 53 30 203 212 96 115 181 219 191
230 9 11 35 43 57 70 22 28 50 61 62 75 l23 24 -1 -234 c0 -129 0 -267 0 -305
l1 -71 35 -1 35 -1 0 372 0 373 -28 -5 c-30 -4 -39 -14 -158 -157 -36 -44 -73
-89 -82 -100 -10 -11 -35 -42 -57 -70 -21 -27 -44 -55 -49 -60 -6 -6 -40 -45
-75 -89 -82 -102 -103 -126 -110 -126 -3 0 -5 135 -4 299 1 218 -2 301 -10
303 -7 2 -24 2 -38 0z"/>
<path d="M8595 7160 c-82 -36 -128 -109 -129 -202 0 -64 36 -153 67 -163 9 -4
17 -10 17 -15 0 -4 18 -15 40 -24 22 -9 40 -19 40 -23 0 -4 -15 -30 -34 -58
-69 -103 -146 -224 -146 -229 0 -4 19 -6 43 -6 41 0 43 2 77 60 19 33 38 60
43 60 4 0 7 5 7 10 0 6 22 44 49 84 l49 72 120 1 c118 0 120 0 125 -23 2 -13
0 -21 -4 -18 -5 3 -5 -5 -1 -18 4 -13 7 -69 6 -125 l-1 -103 36 0 37 0 -1 368
0 367 -200 2 c-172 1 -206 -1 -240 -17z m361 -56 c-3 -7 -1 -16 5 -19 5 -4 6
-11 2 -18 -3 -6 -6 -36 -5 -66 4 -155 4 -190 -1 -198 -6 -10 -118 -10 -134 0
-6 4 -14 4 -17 -1 -9 -14 -129 -5 -174 13 -62 25 -87 66 -87 140 0 47 5 67 23
93 43 59 76 68 244 69 122 1 148 -2 144 -13z"/>
<path d="M17580 6870 c1 -266 -2 -313 -15 -334 -17 -25 -55 -41 -92 -37 -13 1
-23 -1 -24 -6 0 -4 -2 -20 -4 -35 -3 -26 -1 -28 32 -28 92 0 153 45 171 127 5
22 9 153 9 291 0 139 3 255 7 259 3 4 96 7 206 7 169 1 199 -1 202 -14 2 -8 3
-160 3 -337 l-1 -323 37 0 37 0 0 369 0 370 -284 1 -284 0 0 -310z"/>
</g>
</svg>
